<?xml version="1.0" standalone="no"?>
<!DOCTYPE svg PUBLIC "-//W3C//DTD SVG 20010904//EN"
 "http://www.w3.org/TR/2001/REC-SVG-20010904/DTD/svg10.dtd">
<svg version="1.0" xmlns="http://www.w3.org/2000/svg"
 width="378.000000pt" height="133.000000pt" viewBox="0 0 378.000000 133.000000"
 preserveAspectRatio="xMidYMid meet">

<g transform="translate(0.000000,133.000000) scale(0.100000,-0.100000)"
fill="#000000" stroke="none">
<path d="M3000 1280 c-13 -13 -20 -33 -20 -60 0 -81 85 -119 147 -66 37 32 39
99 4 127 -32 26 -104 26 -131 -1z"/>
<path d="M1225 1250 c-127 -28 -238 -91 -341 -194 -84 -85 -139 -160 -174
-239 -18 -41 -19 -50 -7 -79 51 -122 202 -295 315 -361 101 -59 271 -111 280
-84 1 4 2 43 2 87 0 68 -3 81 -17 86 -47 14 -128 63 -155 93 -54 61 -78 127
-78 211 1 118 47 202 149 268 56 37 56 37 166 37 108 0 112 -1 163 -33 58 -38
118 -113 133 -167 9 -33 12 -35 52 -35 87 0 171 -21 237 -58 36 -20 68 -38 71
-40 4 -2 9 5 13 14 7 19 -48 125 -107 204 -91 123 -201 208 -336 262 -67 26
-90 30 -201 33 -69 2 -143 0 -165 -5z"/>
<path d="M2110 755 l0 -505 65 0 65 0 0 40 c0 22 2 40 5 40 3 0 26 -15 52 -34
168 -120 378 -66 473 120 34 67 35 72 35 189 0 112 -2 124 -29 177 -42 83 -77
120 -146 157 -116 62 -248 48 -340 -35 -21 -19 -40 -34 -44 -34 -3 0 -6 88 -6
195 l0 195 -65 0 -65 0 0 -505z m467 69 c129 -80 146 -287 35 -408 -37 -40
-81 -56 -152 -56 -97 0 -157 37 -203 125 -30 57 -30 183 0 240 68 130 203 171
320 99z"/>
<path d="M413 1202 l-113 -3 0 -59 0 -60 78 0 c47 0 83 -5 90 -12 15 -15 17
-515 2 -570 -22 -77 -87 -128 -164 -128 -64 0 -91 13 -148 72 l-50 52 -39 -44
c-21 -24 -39 -46 -39 -50 0 -3 14 -25 30 -47 72 -97 201 -141 326 -110 92 23
154 71 193 149 l31 61 0 302 c0 221 3 304 12 313 7 7 39 12 74 12 70 0 74 4
74 76 l0 44 -109 0 c-60 0 -115 1 -123 3 -7 1 -64 1 -125 -1z"/>
<path d="M3457 1143 c-4 -3 -7 -44 -7 -90 l0 -83 -44 0 c-24 0 -58 -3 -75 -6
l-32 -7 3 -61 3 -61 73 -3 72 -3 0 -289 0 -290 55 0 c30 0 58 0 63 0 4 0 9
129 12 287 l5 288 85 5 85 5 3 62 c3 72 5 71 -108 75 l-65 3 -3 88 -3 87 -58
0 c-32 0 -61 -3 -64 -7z"/>
<path d="M3013 964 c-10 -4 -13 -86 -13 -360 l0 -354 65 0 65 0 -2 357 -3 358
-50 2 c-27 1 -56 0 -62 -3z"/>
<path d="M1268 920 c-70 -46 -96 -129 -68 -214 10 -33 79 -106 99 -106 5 0 16
-3 24 -6 10 -3 23 10 40 38 24 42 96 113 149 150 32 21 28 52 -13 101 -60 73
-153 88 -231 37z"/>
<path d="M1614 677 c-119 -57 -177 -147 -178 -277 -1 -123 58 -220 169 -278
68 -35 176 -37 253 -2 l53 23 55 -54 54 -53 35 34 c19 19 35 38 35 43 0 5 -22
32 -50 59 l-49 51 16 36 c44 102 41 202 -7 287 -57 99 -135 146 -255 151 -69
4 -87 1 -131 -20z m201 -106 c126 -58 150 -216 48 -313 -36 -34 -73 -48 -128
-48 -81 0 -141 39 -176 115 -24 51 -24 99 0 150 45 97 160 140 256 96z"/>
</g>
</svg>
